<?xml version="1.0" encoding="UTF-8" standalone="no"?>
<svg
   xmlns:dc="http://purl.org/dc/elements/1.1/"
   xmlns:cc="http://creativecommons.org/ns#"
   xmlns:rdf="http://www.w3.org/1999/02/22-rdf-syntax-ns#"
   xmlns:svg="http://www.w3.org/2000/svg"
   xmlns="http://www.w3.org/2000/svg"
   xmlns:sodipodi="http://sodipodi.sourceforge.net/DTD/sodipodi-0.dtd"
   xmlns:inkscape="http://www.inkscape.org/namespaces/inkscape"
   sodipodi:docname="BoatDirection_Overlay.svg"
   inkscape:version="1.0 (6e3e5246a0, 2020-05-07)"
   id="svg8"
   version="1.1"
   viewBox="0 0 406.39999 406.39999"
   height="16in"
   width="16in">
  <defs
     id="defs2">
    <marker
       inkscape:isstock="true"
       style="overflow:visible"
       id="Arrow1Lstart"
       refX="0"
       refY="0"
       orient="auto"
       inkscape:stockid="Arrow1Lstart">
      <path
         transform="matrix(0.8,0,0,0.8,10,0)"
         style="fill-rule:evenodd;stroke:#000000;stroke-width:1pt"
         d="M 0,0 5,-5 -12.5,0 5,5 Z"
         id="path1528" />
    </marker>
    <rect
       id="rect1174"
       height="165.33997"
       width="27.258221"
       y="57.964291"
       x="-128.59096" />
    <rect
       id="rect1168"
       height="164.84068"
       width="31.5847"
       y="56.707584"
       x="-137.0262" />
  </defs>
  <sodipodi:namedview
     units="in"
     showborder="false"
     inkscape:window-maximized="1"
     inkscape:window-y="1179"
     inkscape:window-x="72"
     inkscape:window-height="2096"
     inkscape:window-width="3768"
     showgrid="false"
     inkscape:document-rotation="0"
     inkscape:current-layer="layer1"
     inkscape:document-units="px"
     inkscape:cy="604.59464"
     inkscape:cx="853.73162"
     inkscape:zoom="1.4142136"
     inkscape:pageshadow="2"
     inkscape:pageopacity="0.0"
     borderopacity="1.0"
     bordercolor="#666666"
     pagecolor="#ffffff"
     id="base"
     fit-margin-top="0"
     fit-margin-left="0"
     fit-margin-right="0"
     fit-margin-bottom="0" />
  <metadata
     id="metadata5">
    <rdf:RDF>
      <cc:Work
         rdf:about="">
        <dc:format>image/svg+xml</dc:format>
        <dc:type
           rdf:resource="http://purl.org/dc/dcmitype/StillImage" />
        <dc:title />
      </cc:Work>
    </rdf:RDF>
  </metadata>
  <g
     id="layer1"
     inkscape:groupmode="layer"
     inkscape:label="Layer 1"
     transform="translate(150.78799,56.153125)">
    <path
       id="rect853"
       style="opacity:0.92837893;fill:#fafafa;stroke:none;stroke-width:1.13386;stroke-linecap:round;fill-opacity:1"
       d="M -198.18945 -4.9257812 L -198.18945 1540.9258 L 1734.1895 1540.9258 L 1734.1895 -4.9257812 L -198.18945 -4.9257812 z M 545.01758 466.19727 L 555.81641 466.19727 L 555.81641 466.55273 L 545.01758 466.55273 L 545.01758 466.19727 z M 767.78516 481.55664 A 286.44265 286.44265 0 0 1 768 481.55664 A 286.44265 286.44265 0 0 1 970.09766 565.00781 L 905.22266 629.88086 A 193.81871 195.57654 0 0 0 768 572.42188 A 193.81871 195.57654 0 0 0 630.77734 629.88086 L 565.9043 565.00781 A 286.44265 286.44265 0 0 1 767.78516 481.55664 z "
       transform="matrix(0.26458333,0,0,0.26458333,-150.78799,-56.153125)" />
    <text
       id="text909"
       y="74.781075"
       x="-38.035526"
       style="font-style:normal;font-weight:normal;font-size:10.5833px;line-height:1.25;font-family:sans-serif;fill:#000000;fill-opacity:1;stroke:none;stroke-width:0.264583"
       xml:space="preserve"><tspan
         style="stroke-width:0.264583"
         y="74.781075"
         x="-38.035526"
         id="tspan907"
         sodipodi:role="line" /></text>
    <text
       style="font-style:normal;font-weight:normal;font-size:10.5833px;line-height:1.25;font-family:sans-serif;white-space:pre;shape-inside:url(#rect1168);fill:#000000;fill-opacity:1;stroke:none;"
       id="text1166"
       xml:space="preserve" />
    <text
       style="font-style:normal;font-weight:normal;font-size:10.5833px;line-height:1.25;font-family:sans-serif;white-space:pre;shape-inside:url(#rect1174);fill:#000000;fill-opacity:1;stroke:none;"
       id="text1172"
       xml:space="preserve" />
    <path
       transform="matrix(0.26458333,0,0,0.26458333,-150.78799,-56.153125)"
       d="M 767.5 469.98047 L 767.5 469.98633 C 718.21039 470.1147 680.81438 481.04068 624.7168 501.83203 L 623.65625 502.89453 C 734.76507 460.39935 761.99325 470.37486 767.5 498.12109 L 767.5 505.6875 C 767.61446 504.10362 767.78901 502.57387 768 501.07422 C 768.21099 502.57387 768.38554 504.10362 768.5 505.6875 L 768.5 498.12109 C 774.00675 470.37486 801.23493 460.39935 912.34375 502.89453 L 911.2832 501.83203 C 855.18562 481.04068 817.78961 470.1147 768.5 469.98633 L 768.5 469.98047 C 768.45933 469.98005 768.41954 469.98047 768.37891 469.98047 L 768.26758 469.98047 L 768.15625 469.98047 C 768.10428 469.98047 768.05203 469.97984 768 469.98047 C 767.94797 469.97984 767.89572 469.98047 767.84375 469.98047 L 767.73242 469.98047 L 767.62109 469.98047 C 767.58046 469.98047 767.54067 469.98005 767.5 469.98047 z "
       style="opacity:0.928379;fill:#4d4d4d;fill-opacity:1;stroke:none;stroke-width:1.13386;stroke-linecap:round"
       id="path945" />
  </g>
</svg>
