<?xml version="1.0" encoding="UTF-8" standalone="no"?>
<svg
   xmlns:dc="http://purl.org/dc/elements/1.1/"
   xmlns:cc="http://creativecommons.org/ns#"
   xmlns:rdf="http://www.w3.org/1999/02/22-rdf-syntax-ns#"
   xmlns:svg="http://www.w3.org/2000/svg"
   xmlns="http://www.w3.org/2000/svg"
   xmlns:sodipodi="http://sodipodi.sourceforge.net/DTD/sodipodi-0.dtd"
   xmlns:inkscape="http://www.inkscape.org/namespaces/inkscape"
   sodipodi:docname="WindDirection_Scale.svg"
   inkscape:version="1.0 (6e3e5246a0, 2020-05-07)"
   id="svg8"
   version="1.1"
   viewBox="0 0 146.4277 146.42769"
   height="5.7648697in"
   width="5.7648702in">
  <defs
     id="defs2">
    <marker
       inkscape:isstock="true"
       style="overflow:visible"
       id="Arrow1Lstart"
       refX="0"
       refY="0"
       orient="auto"
       inkscape:stockid="Arrow1Lstart">
      <path
         transform="matrix(0.8,0,0,0.8,10,0)"
         style="fill-rule:evenodd;stroke:#000000;stroke-width:1pt"
         d="M 0,0 5,-5 -12.5,0 5,5 Z"
         id="path1528" />
    </marker>
    <rect
       id="rect1174"
       height="165.33997"
       width="27.258221"
       y="57.964291"
       x="-128.59096" />
    <rect
       id="rect1168"
       height="164.84068"
       width="31.5847"
       y="56.707584"
       x="-137.0262" />
  </defs>
  <sodipodi:namedview
     inkscape:snap-global="false"
     units="in"
     showborder="false"
     inkscape:window-maximized="1"
     inkscape:window-y="0"
     inkscape:window-x="910"
     inkscape:window-height="1115"
     inkscape:window-width="2048"
     showgrid="false"
     inkscape:document-rotation="0"
     inkscape:current-layer="layer1"
     inkscape:document-units="px"
     inkscape:cy="197.84538"
     inkscape:cx="321.84219"
     inkscape:zoom="1"
     inkscape:pageshadow="2"
     inkscape:pageopacity="0.0"
     borderopacity="1.0"
     bordercolor="#666666"
     pagecolor="#ffffff"
     id="base"
     fit-margin-top="0"
     fit-margin-left="0"
     fit-margin-right="0"
     fit-margin-bottom="0" />
  <metadata
     id="metadata5">
    <rdf:RDF>
      <cc:Work
         rdf:about="">
        <dc:format>image/svg+xml</dc:format>
        <dc:type
           rdf:resource="http://purl.org/dc/dcmitype/StillImage" />
        <dc:title />
      </cc:Work>
    </rdf:RDF>
  </metadata>
  <g
     id="layer1"
     inkscape:groupmode="layer"
     inkscape:label="Layer 1"
     transform="translate(-31.78615,-75.286153)">
    <text
       id="text909"
       y="74.781075"
       x="-38.035526"
       style="font-style:normal;font-weight:normal;font-size:10.5833px;line-height:1.25;font-family:sans-serif;fill:#000000;fill-opacity:1;stroke:none;stroke-width:0.264583"
       xml:space="preserve"><tspan
         style="stroke-width:0.264583"
         y="74.781075"
         x="-38.035526"
         id="tspan907"
         sodipodi:role="line" /></text>
    <text
       style="font-style:normal;font-weight:normal;font-size:10.5833px;line-height:1.25;font-family:sans-serif;white-space:pre;shape-inside:url(#rect1168);fill:#000000;fill-opacity:1;stroke:none;"
       id="text1166"
       xml:space="preserve" />
    <text
       style="font-style:normal;font-weight:normal;font-size:10.5833px;line-height:1.25;font-family:sans-serif;white-space:pre;shape-inside:url(#rect1174);fill:#000000;fill-opacity:1;stroke:none;"
       id="text1172"
       xml:space="preserve" />
    <g
       transform="matrix(0.8660254,0.5,-0.17250589,0.29878897,178.6373,90.18541)"
       style="opacity:0.95;stroke-width:1.70248"
       id="g1150" />
    <g
       id="g1182"
       style="opacity:0.95;stroke-width:1.70248"
       transform="matrix(0.5,0.8660254,-0.29878897,0.1725059,197.93603,134.79076)" />
    <g
       transform="matrix(0.70710678,0.70710678,-0.48792035,0.48792035,212.01632,90.429123)"
       style="opacity:0.95;stroke-width:1.20384"
       id="g1322" />
    <path
       d="m 392.17578,76.726562 -5.43555,9.416016 a 220.05355,220.05355 0 0 1 80.54493,80.544922 l 9.41601,-5.43555 A 230.92498,230.92498 0 0 0 392.17578,76.726562 Z m 0,0 -5.43555,9.416016 a 220.05355,220.05355 0 0 1 80.54493,80.544922 l 9.41601,-5.43555 A 230.92498,230.92498 0 0 0 392.17578,76.726562 Z m 47.54087,37.539108 a 0.56692918,0.3911945 45 0 0 -0.67728,-0.13701 c -8.00155,7.52225 -11.95616,11.3285 -13.90952,13.26226 -0.97659,0.96697 -1.44878,1.4675 -1.68639,1.72809 -0.11867,0.13043 -0.18177,0.19994 -0.21835,0.24988 -0.0184,0.0248 -0.0313,0.0426 -0.0491,0.0806 -0.005,0.009 -0.0145,0.0348 -0.0148,0.0356 -2.7e-4,7.9e-4 -0.0135,0.0653 -0.0134,0.0658 -5e-5,4.2e-4 0.008,0.15898 0.008,0.15916 0,0 0.0132,0.0494 0.0132,0.0494 0,0 0.0169,0.0457 0.0169,0.0457 0,0 0.44652,-0.0289 0.44652,-0.0289 a 0.56692918,0.3911945 45 0 0 0.40193,0.40192 0.56692918,0.3911945 45 0 0 0.0472,-0.068 c 0.0147,-0.0199 0.0664,-0.0867 0.17873,-0.21026 0.22501,-0.24693 0.69656,-0.73772 1.66986,-1.7014 1.94687,-1.92709 5.89724,-5.73961 13.8971,-13.26028 a 0.56692918,0.3911945 45 0 0 -0.11055,-0.67242 z m -0.2852,0.26739 c -16.0014,15.04292 -15.80091,15.24342 -15.80091,15.24342 m 47.73281,34.94735 a 0.56692918,0.19559725 60 0 0 -0.45331,-0.40314 c -4.92263,2.45074 -7.35136,3.73182 -8.54847,4.40698 -0.59849,0.33768 -0.88631,0.52698 -1.03073,0.62913 -0.0721,0.0512 -0.11045,0.0786 -0.13221,0.10208 -0.011,0.0116 -0.0187,0.0199 -0.0286,0.0422 -0.003,0.006 -0.008,0.0212 -0.008,0.0217 -1.4e-4,5.1e-4 -0.006,0.0457 -0.006,0.0461 -2e-5,3e-4 0.0127,0.12887 0.0127,0.12903 0,0 0.0111,0.0447 0.0111,0.0447 0,0 0.0133,0.0435 0.0133,0.0435 0,0 0.29322,0.17168 0.29322,0.17168 a 0.56692918,0.19559725 60 0 0 0.2842,0.49225 0.56692918,0.19559725 60 0 0 0.0279,-0.0331 c 0.009,-0.009 0.0397,-0.0395 0.10795,-0.0881 0.13676,-0.0969 0.42461,-0.27875 1.02109,-0.61527 1.19315,-0.67272 3.61877,-1.9606 8.54036,-4.41083 a 0.56692918,0.19559725 60 0 0 -0.10478,-0.57879 z m -0.17549,0.0868 c -9.84422,4.90097 -9.70245,5.14652 -9.70245,5.14652 M 389.31658,82.501013 a 0.56692918,0.19559725 30 0 0 -0.59415,-0.122473 c -3.03775,4.583721 -4.50055,6.907533 -5.1997,8.090788 -0.34947,0.591689 -0.50407,0.89954 -0.57807,1.060207 -0.0368,0.08043 -0.0564,0.123301 -0.0635,0.154515 -0.004,0.01551 -0.006,0.0266 -0.004,0.05085 5.6e-4,0.006 0.004,0.02229 0.004,0.02281 1.3e-4,5.11e-4 0.0178,0.04245 0.0181,0.04278 1.4e-4,2.75e-4 0.0754,0.105258 0.0755,0.105379 0,0 0.032,0.03321 0.032,0.03321 0,0 0.0333,0.03096 0.0333,0.03096 0,0 0.33978,0.0021 0.33978,0.0021 a 0.56692918,0.19559725 30 0 0 0.49225,0.284202 0.56692918,0.19559725 30 0 0 0.008,-0.04266 c 0.003,-0.01246 0.0146,-0.05403 0.0495,-0.130254 0.07,-0.152249 0.22835,-0.453707 0.57665,-1.043383 0.69694,-1.179163 2.15365,-3.507315 5.19076,-8.090066 a 0.56692918,0.19559725 30 0 0 -0.38014,-0.448859 z m -0.10859,0.162899 c -6.07486,9.166473 -5.8293,9.308243 -5.8293,9.308243"
       transform="matrix(0.26458333,0,0,0.26458333,31.78615,75.286153)"
       inkscape:transform-center-y="-40.846732"
       inkscape:transform-center-x="-41.128691"
       style="opacity:0.928379;fill:#00ff00;stroke:none;stroke-width:1.13386;stroke-linecap:round"
       id="path1865" />
    <path
       transform="matrix(0.26458333,0,0,0.26458333,31.78615,75.286153)"
       id="path2041"
       style="opacity:0.928379;fill:#00ff00;stroke:none;stroke-width:1.13386;stroke-linecap:round"
       inkscape:transform-center-x="-41.128691"
       inkscape:transform-center-y="-40.846732"
       d="m 392.17578,76.726562 -5.43555,9.416016 a 220.05355,220.05355 0 0 1 80.54493,80.544922 l 9.41601,-5.43555 A 230.92498,230.92498 0 0 0 392.17578,76.726562 Z m 0,0 -5.43555,9.416016 a 220.05355,220.05355 0 0 1 80.54493,80.544922 l 9.41601,-5.43555 A 230.92498,230.92498 0 0 0 392.17578,76.726562 Z m 47.54087,37.539108 a 0.56692918,0.3911945 45 0 0 -0.67728,-0.13701 c -8.00155,7.52225 -11.95616,11.3285 -13.90952,13.26226 -0.97659,0.96697 -1.44878,1.4675 -1.68639,1.72809 -0.11867,0.13043 -0.18177,0.19994 -0.21835,0.24988 -0.0184,0.0248 -0.0313,0.0426 -0.0491,0.0806 -0.005,0.009 -0.0145,0.0348 -0.0148,0.0356 -2.7e-4,7.9e-4 -0.0135,0.0653 -0.0134,0.0658 -5e-5,4.2e-4 0.008,0.15898 0.008,0.15916 0,0 0.0132,0.0494 0.0132,0.0494 0,0 0.0169,0.0457 0.0169,0.0457 0,0 0.44652,-0.0289 0.44652,-0.0289 a 0.56692918,0.3911945 45 0 0 0.40193,0.40192 0.56692918,0.3911945 45 0 0 0.0472,-0.068 c 0.0147,-0.0199 0.0664,-0.0867 0.17873,-0.21026 0.22501,-0.24693 0.69656,-0.73772 1.66986,-1.7014 1.94687,-1.92709 5.89724,-5.73961 13.8971,-13.26028 a 0.56692918,0.3911945 45 0 0 -0.11055,-0.67242 z m -0.2852,0.26739 c -16.0014,15.04292 -15.80091,15.24342 -15.80091,15.24342 m 47.73281,34.94735 a 0.56692918,0.19559725 60 0 0 -0.45331,-0.40314 c -4.92263,2.45074 -7.35136,3.73182 -8.54847,4.40698 -0.59849,0.33768 -0.88631,0.52698 -1.03073,0.62913 -0.0721,0.0512 -0.11045,0.0786 -0.13221,0.10208 -0.011,0.0116 -0.0187,0.0199 -0.0286,0.0422 -0.003,0.006 -0.008,0.0212 -0.008,0.0217 -1.4e-4,5.1e-4 -0.006,0.0457 -0.006,0.0461 -2e-5,3e-4 0.0127,0.12887 0.0127,0.12903 0,0 0.0111,0.0447 0.0111,0.0447 0,0 0.0133,0.0435 0.0133,0.0435 0,0 0.29322,0.17168 0.29322,0.17168 a 0.56692918,0.19559725 60 0 0 0.2842,0.49225 0.56692918,0.19559725 60 0 0 0.0279,-0.0331 c 0.009,-0.009 0.0397,-0.0395 0.10795,-0.0881 0.13676,-0.0969 0.42461,-0.27875 1.02109,-0.61527 1.19315,-0.67272 3.61877,-1.9606 8.54036,-4.41083 a 0.56692918,0.19559725 60 0 0 -0.10478,-0.57879 z m -0.17549,0.0868 c -9.84422,4.90097 -9.70245,5.14652 -9.70245,5.14652 M 389.31658,82.501013 a 0.56692918,0.19559725 30 0 0 -0.59415,-0.122473 c -3.03775,4.583721 -4.50055,6.907533 -5.1997,8.090788 -0.34947,0.591689 -0.50407,0.89954 -0.57807,1.060207 -0.0368,0.08043 -0.0564,0.123301 -0.0635,0.154515 -0.004,0.01551 -0.006,0.0266 -0.004,0.05085 5.6e-4,0.006 0.004,0.02229 0.004,0.02281 1.3e-4,5.11e-4 0.0178,0.04245 0.0181,0.04278 1.4e-4,2.75e-4 0.0754,0.105258 0.0755,0.105379 0,0 0.032,0.03321 0.032,0.03321 0,0 0.0333,0.03096 0.0333,0.03096 0,0 0.33978,0.0021 0.33978,0.0021 a 0.56692918,0.19559725 30 0 0 0.49225,0.284202 0.56692918,0.19559725 30 0 0 0.008,-0.04266 c 0.003,-0.01246 0.0146,-0.05403 0.0495,-0.130254 0.07,-0.152249 0.22835,-0.453707 0.57665,-1.043383 0.69694,-1.179163 2.15365,-3.507315 5.19076,-8.090066 a 0.56692918,0.19559725 30 0 0 -0.38014,-0.448859 z m -0.10859,0.162899 c -6.07486,9.166473 -5.8293,9.308243 -5.8293,9.308243" />
    <path
       id="path2043"
       style="opacity:0.928379;fill:#00ff00;stroke:none;stroke-width:0.3;stroke-linecap:round"
       inkscape:transform-center-x="40.846747"
       inkscape:transform-center-y="-41.128617"
       d="m 51.126838,117.65537 2.491321,1.43816 A 58.222501,58.222501 0 0 1 74.929003,97.782679 L 73.490847,95.29136 a 61.0989,61.0989 0 0 0 -22.364009,22.36401 z m 0,0 2.491321,1.43816 A 58.222501,58.222501 0 0 1 74.929003,97.782679 L 73.490847,95.29136 a 61.0989,61.0989 0 0 0 -22.364009,22.36401 z m 9.932223,-12.57852 a 0.10350354,0.15000001 45 0 0 -0.03625,0.17919 c 1.990262,2.11708 2.997332,3.16341 3.508973,3.68023 0.255844,0.25839 0.388276,0.38332 0.457224,0.44619 0.03451,0.0314 0.0529,0.0481 0.06611,0.0578 0.0066,0.005 0.01127,0.008 0.02133,0.013 0.0024,0.001 0.0092,0.004 0.0094,0.004 2.09e-4,7e-5 0.01728,0.004 0.01741,0.004 1.11e-4,1e-5 0.04206,-0.002 0.04211,-0.002 0,0 0.01307,-0.003 0.01307,-0.003 0,0 0.01209,-0.004 0.01209,-0.004 0,0 -0.0076,-0.11815 -0.0076,-0.11815 a 0.10350354,0.15000001 45 0 0 0.106341,-0.10634 0.10350354,0.15000001 45 0 0 -0.01799,-0.0125 c -0.0053,-0.004 -0.02294,-0.0176 -0.05563,-0.0473 -0.06533,-0.0595 -0.195188,-0.1843 -0.450162,-0.44181 -0.509876,-0.51511 -1.518605,-1.56032 -3.508449,-3.67695 a 0.10350354,0.15000001 45 0 0 -0.177911,0.0293 z m 0.07075,0.0755 c 3.980105,4.2337 4.033154,4.18065 4.033154,4.18065 m 9.246487,-12.629302 a 0.05175177,0.15000001 60 0 0 -0.106664,0.119938 c 0.648424,1.302446 0.987377,1.945048 1.166013,2.261783 0.08934,0.158351 0.13943,0.234503 0.166457,0.272714 0.01355,0.01908 0.0208,0.02922 0.02701,0.03498 0.0031,0.0029 0.0053,0.0049 0.01117,0.0076 0.0016,7.93e-4 0.0056,0.0021 0.0057,0.0021 1.35e-4,3.7e-5 0.01209,0.0016 0.0122,0.0016 7.9e-5,5e-6 0.0341,-0.0034 0.03414,-0.0034 0,0 0.01183,-0.0029 0.01183,-0.0029 0,0 0.01151,-0.0035 0.01151,-0.0035 0,0 0.04542,-0.07758 0.04542,-0.07758 a 0.05175177,0.15000001 60 0 0 0.130241,-0.07519 0.05175177,0.15000001 60 0 0 -0.0088,-0.0074 c -0.0024,-0.0024 -0.01045,-0.0105 -0.02331,-0.02856 -0.02564,-0.03618 -0.07375,-0.112344 -0.16279,-0.270163 -0.177991,-0.315688 -0.518742,-0.957466 -1.167032,-2.259637 a 0.05175177,0.15000001 60 0 0 -0.153139,0.02772 z m 0.02296,0.04643 c 1.296715,2.604616 1.361684,2.567106 1.361684,2.567106 M 52.654662,118.41187 a 0.05175177,0.15000001 30 0 0 -0.0324,0.1572 c 1.212776,0.80374 1.827618,1.19077 2.140687,1.37575 0.156551,0.0925 0.238004,0.13337 0.280513,0.15295 0.02128,0.01 0.03262,0.0149 0.04088,0.0168 0.0041,0.001 0.007,0.002 0.01345,0.001 0.0016,-1.5e-4 0.0059,-0.001 0.006,-0.001 1.35e-4,-3e-5 0.01123,-0.005 0.01132,-0.005 7.2e-5,-4e-5 0.02785,-0.0199 0.02788,-0.02 0,0 0.0088,-0.008 0.0088,-0.008 0,0 0.0082,-0.009 0.0082,-0.009 0,0 5.56e-4,-0.0899 5.56e-4,-0.0899 a 0.05175177,0.15000001 30 0 0 0.0752,-0.13024 0.05175177,0.15000001 30 0 0 -0.01129,-0.002 c -0.0033,-7.9e-4 -0.01429,-0.004 -0.03446,-0.0131 -0.04028,-0.0185 -0.120043,-0.0604 -0.276062,-0.15257 -0.311987,-0.1844 -0.927977,-0.56982 -2.140496,-1.37339 a 0.05175177,0.15000001 30 0 0 -0.118761,0.10058 z m 0.0431,0.0287 c 2.425296,1.6073 2.462806,1.54233 2.462806,1.54233" />
    <path
       d="m 44.676693,164.43718 2.778563,-0.7447 a 58.222501,58.222501 0 0 1 -5e-6,-30.13809 l -2.778559,-0.7447 a 61.0989,61.0989 0 0 0 10e-7,31.62749 z m 0,0 2.778563,-0.7447 a 58.222501,58.222501 0 0 1 -5e-6,-30.13809 l -2.778559,-0.7447 a 61.0989,61.0989 0 0 0 10e-7,31.62749 z m -1.871214,-15.9175 a 0.10350354,0.15000001 0 0 0 0.101073,0.15234 c 2.90433,0.0897 4.356303,0.11743 5.083535,0.1211 0.363618,0.002 0.5456,-0.004 0.63881,-0.008 0.0466,-0.002 0.07142,-0.003 0.08762,-0.006 0.0082,-0.001 0.01363,-0.002 0.02428,-0.006 0.0024,-9.9e-4 0.0093,-0.004 0.0095,-0.004 1.97e-4,-10e-5 0.01505,-0.009 0.01514,-0.009 8.5e-5,-7e-5 0.02833,-0.0312 0.02836,-0.0312 0,0 0.0071,-0.0114 0.0071,-0.0114 0,0 0.0057,-0.0114 0.0057,-0.0114 0,0 -0.08892,-0.0782 -0.08892,-0.0782 a 0.10350354,0.15000001 0 0 0 10e-7,-0.15039 0.10350354,0.15000001 0 0 0 -0.02156,0.004 c -0.0066,9.2e-4 -0.02867,0.004 -0.07278,0.006 -0.08827,0.004 -0.268339,0.008 -0.63072,0.006 -0.724774,-0.004 -2.177129,-0.0295 -5.080844,-0.11915 a 0.10350354,0.15000001 0 0 0 -0.105084,0.14652 z m 0.103414,0.003 c 5.808037,0.17932 5.808036,0.10429 5.808036,0.10429 m -2.392011,-15.46851 a 0.05175177,0.15000001 15 0 0 0.0094,0.16023 c 1.379474,0.46246 2.073538,0.67717 2.423818,0.77482 0.175144,0.0488 0.26441,0.0672 0.310541,0.0751 0.02307,0.004 0.03537,0.006 0.04383,0.006 0.0042,-1.4e-4 0.0072,-2.8e-4 0.01327,-0.003 0.0017,-5.7e-4 0.0054,-0.002 0.0055,-0.003 1.22e-4,-6e-5 0.0097,-0.007 0.0098,-0.007 6e-5,-5e-5 0.02171,-0.0265 0.02174,-0.0266 0,0 0.0063,-0.0104 0.0063,-0.0104 0,0 0.0057,-0.0106 0.0057,-0.0106 0,0 -0.02274,-0.087 -0.02274,-0.087 a 0.05175177,0.15000001 15 0 0 0.03893,-0.14526 0.05175177,0.15000001 15 0 0 -0.01145,9.9e-4 c -0.0034,0 -0.01481,-4e-5 -0.03668,-0.004 -0.04371,-0.007 -0.131589,-0.0273 -0.306144,-0.0759 -0.349084,-0.0974 -1.043837,-0.31022 -2.423021,-0.77259 a 0.05175177,0.15000001 15 0 0 -0.08868,0.12789 z m 0.04907,0.0166 c 2.758658,0.92483 2.778074,0.85236 2.778074,0.85236 m -2.860104,29.864 a 0.15000001,0.05175177 75 0 0 0.08825,0.13407 c 1.425892,-0.28923 2.134323,-0.45032 2.486496,-0.54089 0.176106,-0.0453 0.262602,-0.074 0.306505,-0.0902 0.02212,-0.008 0.0336,-0.0125 0.04079,-0.017 0.0036,-0.002 0.0064,-0.004 0.01022,-0.009 0.001,-0.001 0.0035,-0.005 0.0035,-0.005 7.4e-5,-1.2e-4 0.0044,-0.0115 0.0045,-0.0115 2.3e-5,-8e-5 0.0056,-0.0338 0.0056,-0.0339 0,0 5.66e-4,-0.0119 5.66e-4,-0.0119 0,0 -5.66e-4,-0.0122 -5.66e-4,-0.0122 0,0 -0.06318,-0.064 -0.06318,-0.064 a 0.15000001,0.05175177 75 0 0 -0.03892,-0.14527 0.15000001,0.05175177 75 0 0 -0.0094,0.007 c -0.0029,0.002 -0.01293,0.007 -0.03363,0.0151 -0.04156,0.0154 -0.127593,0.0422 -0.303089,0.0873 -0.350998,0.0902 -1.059102,0.25326 -2.484692,0.54243 a 0.15000001,0.05175177 75 0 0 -0.01286,0.1551 z m 0.05077,-0.0102 c 2.851476,-0.57841 2.832059,-0.65088 2.832059,-0.65088"
       inkscape:transform-center-y="-0.20885325"
       inkscape:transform-center-x="58.455839"
       style="opacity:0.928379;fill:#00ff00;stroke:none;stroke-width:0.3;stroke-linecap:round"
       id="path2045" />
    <path
       id="path2047"
       style="opacity:0.928379;fill:#00ff00;stroke:none;stroke-width:0.3;stroke-linecap:round"
       inkscape:transform-center-x="-58.455104"
       inkscape:transform-center-y="0.20885676"
       d="m 164.06812,133.2274 -2.77857,0.7447 a 58.222501,58.222501 0 0 1 1e-5,30.13809 l 2.77856,0.7447 a 61.0989,61.0989 0 0 0 0,-31.62749 z m 0,0 -2.77857,0.7447 a 58.222501,58.222501 0 0 1 1e-5,30.13809 l 2.77856,0.7447 a 61.0989,61.0989 0 0 0 0,-31.62749 z m 1.87121,15.9175 a 0.10350354,0.15000001 0 0 0 -0.10107,-0.15234 c -2.90433,-0.0897 -4.35631,-0.11743 -5.08354,-0.1211 -0.36362,-0.002 -0.5456,0.004 -0.63881,0.008 -0.0466,0.002 -0.0714,0.003 -0.0876,0.006 -0.008,0.001 -0.0136,0.002 -0.0243,0.006 -0.002,9.9e-4 -0.009,0.004 -0.01,0.004 -2e-4,10e-5 -0.0151,0.009 -0.0151,0.009 -8e-5,7e-5 -0.0283,0.0312 -0.0284,0.0312 0,0 -0.007,0.0114 -0.007,0.0114 0,0 -0.006,0.0114 -0.006,0.0114 0,0 0.0889,0.0782 0.0889,0.0782 a 0.10350354,0.15000001 0 0 0 0,0.15039 0.10350354,0.15000001 0 0 0 0.0216,-0.004 c 0.007,-9.2e-4 0.0287,-0.004 0.0728,-0.006 0.0883,-0.004 0.26834,-0.008 0.63072,-0.006 0.72477,0.004 2.17713,0.0295 5.08084,0.11915 a 0.10350354,0.15000001 0 0 0 0.10509,-0.14652 z m -0.10341,-0.003 c -5.80804,-0.17932 -5.80804,-0.10429 -5.80804,-0.10429 m 2.39201,15.46851 a 0.05175177,0.15000001 15 0 0 -0.009,-0.16023 c -1.37947,-0.46246 -2.07354,-0.67717 -2.42382,-0.77482 -0.17514,-0.0488 -0.26441,-0.0672 -0.31054,-0.0751 -0.0231,-0.004 -0.0354,-0.006 -0.0438,-0.006 -0.004,1.4e-4 -0.007,2.8e-4 -0.0133,0.003 -0.002,5.7e-4 -0.005,0.002 -0.006,0.003 -1.2e-4,6e-5 -0.01,0.007 -0.01,0.007 -6e-5,5e-5 -0.0217,0.0265 -0.0217,0.0266 0,0 -0.006,0.0104 -0.006,0.0104 0,0 -0.006,0.0106 -0.006,0.0106 0,0 0.0227,0.087 0.0227,0.087 a 0.05175177,0.15000001 15 0 0 -0.0389,0.14526 0.05175177,0.15000001 15 0 0 0.0114,-9.9e-4 c 0.003,0 0.0148,4e-5 0.0367,0.004 0.0437,0.007 0.13159,0.0273 0.30615,0.0759 0.34908,0.0974 1.04383,0.31022 2.42302,0.77259 a 0.05175177,0.15000001 15 0 0 0.0887,-0.12789 z m -0.0491,-0.0166 c -2.75866,-0.92483 -2.77807,-0.85236 -2.77807,-0.85236 m 2.8601,-29.864 a 0.15000001,0.05175177 75 0 0 -0.0883,-0.13407 c -1.42589,0.28923 -2.13432,0.45032 -2.4865,0.54089 -0.1761,0.0453 -0.2626,0.074 -0.3065,0.0902 -0.0221,0.008 -0.0336,0.0125 -0.0408,0.017 -0.004,0.002 -0.006,0.004 -0.0102,0.009 -0.001,0.001 -0.004,0.005 -0.004,0.005 -7e-5,1.2e-4 -0.004,0.0115 -0.005,0.0115 -2e-5,8e-5 -0.006,0.0338 -0.006,0.0339 0,0 -5.7e-4,0.0119 -5.7e-4,0.0119 0,0 5.7e-4,0.0122 5.7e-4,0.0122 0,0 0.0632,0.064 0.0632,0.064 a 0.15000001,0.05175177 75 0 0 0.0389,0.14527 0.15000001,0.05175177 75 0 0 0.009,-0.007 c 0.003,-0.002 0.0129,-0.007 0.0336,-0.0151 0.0416,-0.0154 0.12759,-0.0422 0.30309,-0.0873 0.351,-0.0902 1.0591,-0.25326 2.48469,-0.54243 a 0.15000001,0.05175177 75 0 0 0.0129,-0.1551 z m -0.0508,0.0102 c -2.85148,0.57841 -2.83206,0.65088 -2.83206,0.65088" />
    <path
       d="m 119.97729,208.528 -0.7447,-2.77857 a 58.222501,58.222501 0 0 1 -30.138087,1e-5 l -0.7447,2.77856 a 61.0989,61.0989 0 0 0 31.627487,0 z m 0,0 -0.7447,-2.77857 a 58.222501,58.222501 0 0 1 -30.138087,1e-5 l -0.7447,2.77856 a 61.0989,61.0989 0 0 0 31.627487,0 z m -15.9175,1.87121 a 0.15000001,0.10350354 0 0 0 0.15234,-0.10107 c 0.0897,-2.90433 0.11743,-4.35631 0.1211,-5.08354 0.002,-0.36362 -0.004,-0.5456 -0.008,-0.63881 -0.002,-0.0466 -0.003,-0.0714 -0.006,-0.0876 -0.001,-0.008 -0.002,-0.0136 -0.006,-0.0243 -9.9e-4,-0.002 -0.004,-0.009 -0.004,-0.01 -1e-4,-2e-4 -0.009,-0.0151 -0.009,-0.0151 -7e-5,-8e-5 -0.0312,-0.0283 -0.0312,-0.0284 0,0 -0.0114,-0.007 -0.0114,-0.007 0,0 -0.0114,-0.006 -0.0114,-0.006 0,0 -0.0782,0.0889 -0.0782,0.0889 a 0.15000001,0.10350354 0 0 0 -0.15039,0 0.15000001,0.10350354 0 0 0 0.004,0.0216 c 9.2e-4,0.007 0.004,0.0287 0.006,0.0728 0.004,0.0883 0.008,0.26834 0.006,0.63072 -0.004,0.72477 -0.0295,2.17713 -0.11915,5.08084 a 0.15000001,0.10350354 0 0 0 0.14652,0.10509 z m 0.003,-0.10341 c 0.17932,-5.80804 0.10429,-5.80804 0.10429,-5.80804 m -15.468507,2.39201 a 0.15000001,0.05175177 15 0 0 0.16023,-0.009 c 0.46246,-1.37947 0.67717,-2.07354 0.77482,-2.42382 0.0488,-0.17514 0.0672,-0.26441 0.0751,-0.31054 0.004,-0.0231 0.006,-0.0354 0.006,-0.0438 -1.4e-4,-0.004 -2.8e-4,-0.007 -0.003,-0.0133 -5.7e-4,-0.002 -0.002,-0.005 -0.003,-0.006 -6e-5,-1.2e-4 -0.007,-0.01 -0.007,-0.01 -5e-5,-6e-5 -0.0265,-0.0217 -0.0266,-0.0217 0,0 -0.0104,-0.006 -0.0104,-0.006 0,0 -0.0106,-0.006 -0.0106,-0.006 0,0 -0.087,0.0227 -0.087,0.0227 a 0.15000001,0.05175177 15 0 0 -0.14526,-0.0389 0.15000001,0.05175177 15 0 0 9.9e-4,0.0114 c 0,0.003 -4e-5,0.0148 -0.004,0.0367 -0.007,0.0437 -0.0273,0.13159 -0.0759,0.30615 -0.0974,0.34908 -0.31022,1.04383 -0.77259,2.42302 a 0.15000001,0.05175177 15 0 0 0.12789,0.0887 z m 0.0166,-0.0491 c 0.92483,-2.75866 0.85236,-2.77807 0.85236,-2.77807 m 29.863997,2.8601 a 0.05175177,0.15000001 75 0 0 0.13407,-0.0883 c -0.28923,-1.42589 -0.45032,-2.13432 -0.54089,-2.4865 -0.0453,-0.1761 -0.074,-0.2626 -0.0902,-0.3065 -0.008,-0.0221 -0.0125,-0.0336 -0.017,-0.0408 -0.002,-0.004 -0.004,-0.006 -0.009,-0.0102 -0.001,-0.001 -0.005,-0.004 -0.005,-0.004 -1.2e-4,-7e-5 -0.0115,-0.004 -0.0115,-0.005 -8e-5,-2e-5 -0.0338,-0.006 -0.0339,-0.006 0,0 -0.0119,-5.7e-4 -0.0119,-5.7e-4 0,0 -0.0122,5.7e-4 -0.0122,5.7e-4 0,0 -0.064,0.0632 -0.064,0.0632 a 0.05175177,0.15000001 75 0 0 -0.14527,0.0389 0.05175177,0.15000001 75 0 0 0.007,0.009 c 0.002,0.003 0.007,0.0129 0.0151,0.0336 0.0154,0.0416 0.0422,0.12759 0.0873,0.30309 0.0902,0.351 0.25326,1.0591 0.54243,2.48469 a 0.05175177,0.15000001 75 0 0 0.1551,0.0129 z m -0.0102,-0.0508 c -0.57841,-2.85148 -0.65088,-2.83206 -0.65088,-2.83206"
       inkscape:transform-center-y="58.4551"
       inkscape:transform-center-x="0.20885792"
       style="opacity:0.928379;fill:#00ff00;stroke:none;stroke-width:0.3;stroke-linecap:round"
       id="path2049" />
  </g>
</svg>
